# xmcd
# 
# Track frame offsets:
#     150
#     30070
#     47424
#     68095
#     93007
#     115976
#     136814
#     155980
#     178779
#     196558
#     214827
#     255658
# 
# Disc length: 3574
# 
# Revision: 5
# Processed by: cddbd v1.5.2PL0 Copyright (c) Steve Scherf et al.
# Submitted via: fre:ac v1.0.17
# 
DISCID=960df40c
DTITLE=Ark - Burn The Sun (2001)
DYEAR=0
DGENRE=Progressive Rock
TTITLE0=Heal The Waters
TTITLE1=Torn
TTITLE2=Burn The Sun
TTITLE3=Resurrection
TTITLE4=Absolute Zero
TTITLE5=Just A Little
TTITLE6=Waking Hour
TTITLE7=Noose
TTITLE8=Feed The Fire
TTITLE9=I Bleed
TTITLE10=Missing You
TTITLE11=Silent Is The Rain (Bonus Track)
EXTD=
EXTT0=
EXTT1=
EXTT2=
EXTT3=
EXTT4=
EXTT5=
EXTT6=
EXTT7=
EXTT8=
EXTT9=
EXTT10=
EXTT11=
PLAYORDER=
